<?xml version="1.0" encoding="UTF-8" standalone="no"?>
<!-- Created with Inkscape (http://www.inkscape.org/) -->

<svg
   width="146.30634mm"
   height="34.940334mm"
   viewBox="0 0 146.30634 34.940334"
   version="1.1"
   id="svg1418"
   xmlns:xlink="http://www.w3.org/1999/xlink"
   xmlns="http://www.w3.org/2000/svg"
   xmlns:svg="http://www.w3.org/2000/svg">
  <defs
     id="defs1415">
    <linearGradient
       id="linearGradient2795">
      <stop
         style="stop-color:#b8b8b8;stop-opacity:0.49803922;"
         offset="0"
         id="stop2797" />
      <stop
         style="stop-color:#7f7f7f;stop-opacity:0;"
         offset="1"
         id="stop2799" />
    </linearGradient>
    <linearGradient
       id="linearGradient2787">
      <stop
         style="stop-color:#7f7f7f;stop-opacity:0.5;"
         offset="0"
         id="stop2789" />
      <stop
         style="stop-color:#7f7f7f;stop-opacity:0;"
         offset="1"
         id="stop2791" />
    </linearGradient>
    <linearGradient
       id="linearGradient3676">
      <stop
         style="stop-color:#b2b2b2;stop-opacity:0.5;"
         offset="0"
         id="stop3678" />
      <stop
         style="stop-color:#b3b3b3;stop-opacity:0;"
         offset="1"
         id="stop3680" />
    </linearGradient>
    <linearGradient
       id="linearGradient3236">
      <stop
         style="stop-color:#f4f4f4;stop-opacity:1"
         offset="0"
         id="stop3244" />
      <stop
         style="stop-color:white;stop-opacity:1"
         offset="1"
         id="stop3240" />
    </linearGradient>
    <linearGradient
       id="linearGradient4671">
      <stop
         style="stop-color:#ffd43b;stop-opacity:1;"
         offset="0"
         id="stop4673" />
      <stop
         style="stop-color:#ffe873;stop-opacity:1"
         offset="1"
         id="stop4675" />
    </linearGradient>
    <linearGradient
       id="linearGradient4689">
      <stop
         style="stop-color:#5a9fd4;stop-opacity:1;"
         offset="0"
         id="stop4691" />
      <stop
         style="stop-color:#306998;stop-opacity:1;"
         offset="1"
         id="stop4693" />
    </linearGradient>
    <linearGradient
       x1="224.23996"
       y1="144.75717"
       x2="-65.308502"
       y2="144.75717"
       id="linearGradient2987"
       xlink:href="#linearGradient4671"
       gradientUnits="userSpaceOnUse"
       gradientTransform="translate(100.2702,99.61116)" />
    <linearGradient
       x1="172.94208"
       y1="77.475983"
       x2="26.670298"
       y2="76.313133"
       id="linearGradient2990"
       xlink:href="#linearGradient4689"
       gradientUnits="userSpaceOnUse"
       gradientTransform="translate(100.2702,99.61116)" />
    <linearGradient
       xlink:href="#linearGradient4671"
       id="linearGradient2255"
       gradientUnits="userSpaceOnUse"
       gradientTransform="matrix(0.562541,0,0,0.567972,-11.5974,-7.60954)"
       x1="224.23996"
       y1="144.75717"
       x2="-65.308502"
       y2="144.75717" />
    <linearGradient
       xlink:href="#linearGradient4689"
       id="linearGradient2258"
       gradientUnits="userSpaceOnUse"
       gradientTransform="matrix(0.562541,0,0,0.567972,-11.5974,-7.60954)"
       x1="172.94208"
       y1="76.176224"
       x2="26.670298"
       y2="76.313133" />
    <radialGradient
       xlink:href="#linearGradient2795"
       id="radialGradient2801"
       cx="61.518883"
       cy="132.28575"
       fx="61.518883"
       fy="132.28575"
       r="29.036913"
       gradientTransform="matrix(1,0,0,0.177966,0,108.7434)"
       gradientUnits="userSpaceOnUse" />
    <linearGradient
       xlink:href="#linearGradient4671"
       id="linearGradient1475"
       gradientUnits="userSpaceOnUse"
       gradientTransform="matrix(0.562541,0,0,0.567972,-14.99112,-11.702371)"
       x1="150.96111"
       y1="192.35176"
       x2="112.03144"
       y2="137.27299" />
    <linearGradient
       xlink:href="#linearGradient4689"
       id="linearGradient1478"
       gradientUnits="userSpaceOnUse"
       gradientTransform="matrix(0.562541,0,0,0.567972,-14.99112,-11.702371)"
       x1="26.648937"
       y1="20.603781"
       x2="135.66525"
       y2="114.39767" />
    <radialGradient
       xlink:href="#linearGradient2795"
       id="radialGradient1480"
       gradientUnits="userSpaceOnUse"
       gradientTransform="matrix(1.7490565e-8,-0.23994696,1.054668,3.7915457e-7,-83.7008,142.46201)"
       cx="61.518883"
       cy="132.28575"
       fx="61.518883"
       fy="132.28575"
       r="29.036913" />
  </defs>
  <g
     id="layer1"
     transform="translate(-7.2577665,-76.146544)">
    <g
       id="g1630"
       transform="matrix(0.25584957,0,0,0.25584957,38.847313,76.580391)">
      <path
         style="fill:url(#linearGradient1478);fill-opacity:1"
         d="M 54.918785,9.1927421e-4 C 50.335132,0.02221727 45.957846,0.41313697 42.106285,1.0946693 30.760069,3.0991731 28.700036,7.2947714 28.700035,15.032169 v 10.21875 h 26.8125 v 3.40625 h -26.8125 -10.0625 c -7.792459,0 -14.6157588,4.683717 -16.7499998,13.59375 -2.46181998,10.212966 -2.57101508,16.586023 0,27.25 1.9059283,7.937852 6.4575432,13.593748 14.2499998,13.59375 h 9.21875 v -12.25 c 0,-8.849902 7.657144,-16.656248 16.75,-16.65625 h 26.78125 c 7.454951,0 13.406253,-6.138164 13.40625,-13.625 v -25.53125 c 0,-7.2663386 -6.12998,-12.7247771 -13.40625,-13.9374997 C 64.281548,0.32794397 59.502438,-0.02037903 54.918785,9.1927421e-4 Z m -14.5,8.21875012579 c 2.769547,0 5.03125,2.2986456 5.03125,5.1249996 -2e-6,2.816336 -2.261703,5.09375 -5.03125,5.09375 -2.779476,-1e-6 -5.03125,-2.277415 -5.03125,-5.09375 -10e-7,-2.826353 2.251774,-5.1249996 5.03125,-5.1249996 z"
         id="path1948" />
      <path
         style="fill:url(#linearGradient1475);fill-opacity:1"
         d="m 85.637535,28.657169 v 11.90625 c 0,9.230755 -7.825895,16.999999 -16.75,17 h -26.78125 c -7.335833,0 -13.406249,6.278483 -13.40625,13.625 v 25.531247 c 0,7.266344 6.318588,11.540324 13.40625,13.625004 8.487331,2.49561 16.626237,2.94663 26.78125,0 6.750155,-1.95439 13.406253,-5.88761 13.40625,-13.625004 V 86.500919 h -26.78125 v -3.40625 h 26.78125 13.406254 c 7.792461,0 10.696251,-5.435408 13.406241,-13.59375 2.79933,-8.398886 2.68022,-16.475776 0,-27.25 -1.92578,-7.757441 -5.60387,-13.59375 -13.406241,-13.59375 z m -15.0625,64.65625 c 2.779478,3e-6 5.03125,2.277417 5.03125,5.093747 -2e-6,2.826354 -2.251775,5.125004 -5.03125,5.125004 -2.76955,0 -5.03125,-2.29865 -5.03125,-5.125004 2e-6,-2.81633 2.261697,-5.093747 5.03125,-5.093747 z"
         id="path1950" />
      <ellipse
         style="opacity:0.44382;fill:url(#radialGradient1480);fill-opacity:1;fill-rule:nonzero;stroke:none;stroke-width:15.4174;stroke-miterlimit:4;stroke-dasharray:none;stroke-opacity:1"
         id="path1894"
         cx="55.816761"
         cy="127.70079"
         rx="35.930977"
         ry="6.9673119" />
    </g>
    <g
       id="g1739"
       transform="matrix(0.09086979,0,0,0.09086979,5.935135,76.653705)">
      <path
         style="fill:#5382a1"
         d="m 102.681,291.324 c 0,0 -14.178,8.245 10.09,11.035 29.4,3.354 44.426,2.873 76.825,-3.259 0,0 8.518,5.341 20.414,9.967 -72.63,31.128 -164.376,-1.803 -107.329,-17.743"
         id="path1697" />
      <path
         style="fill:#5382a1"
         d="m 93.806,250.704 c 0,0 -15.902,11.771 8.384,14.283 31.406,3.24 56.208,3.505 99.125,-4.759 0,0 5.936,6.018 15.27,9.309 -87.814,25.678 -185.623,2.025 -122.779,-18.833"
         id="path1699" />
      <path
         style="fill:#f8981d"
         d="m 168.625,181.799 c 17.896,20.604 -4.702,39.145 -4.702,39.145 0,0 45.441,-23.458 24.572,-52.833 -19.491,-27.394 -34.438,-41.005 46.479,-87.934 0,0 -127.013,31.722 -66.349,101.622"
         id="path1701" />
      <path
         style="fill:#5382a1"
         d="m 264.684,321.369 c 0,0 10.492,8.645 -11.555,15.333 -41.923,12.7 -174.488,16.535 -211.314,0.506 -13.238,-5.759 11.587,-13.751 19.396,-15.428 8.144,-1.766 12.798,-1.437 12.798,-1.437 -14.722,-10.371 -95.157,20.364 -40.857,29.166 148.084,24.015 269.943,-10.814 231.532,-28.14"
         id="path1703" />
      <path
         style="fill:#5382a1"
         d="m 109.499,208.617 c 0,0 -67.431,16.016 -23.879,21.832 18.389,2.462 55.047,1.905 89.193,-0.956 27.906,-2.354 55.927,-7.359 55.927,-7.359 0,0 -9.84,4.214 -16.959,9.075 -68.475,18.009 -200.756,9.631 -162.674,-8.79 32.206,-15.568 58.392,-13.802 58.392,-13.802"
         id="path1705" />
      <path
         style="fill:#5382a1"
         d="m 230.462,276.231 c 69.608,-36.171 37.424,-70.931 14.96,-66.248 -5.506,1.146 -7.961,2.139 -7.961,2.139 0,0 2.044,-3.202 5.948,-4.588 44.441,-15.624 78.619,46.081 -14.346,70.52 0,0.001 1.077,-0.962 1.399,-1.823"
         id="path1707" />
      <path
         style="fill:#f8981d"
         d="m 188.495,4.399 c 0,0 38.55,38.563 -36.563,97.862 -60.233,47.568 -13.735,74.69 -0.025,105.678 C 116.748,176.217 90.946,148.292 108.256,122.302 133.663,84.151 204.049,65.654 188.495,4.399"
         id="path1709" />
      <path
         style="fill:#5382a1"
         d="m 116.339,374.246 c 66.815,4.277 169.417,-2.373 171.847,-33.988 0,0 -4.671,11.985 -55.219,21.503 -57.028,10.732 -127.364,9.479 -169.081,2.601 10e-4,-0.001 8.54,7.068 52.453,9.884"
         id="path1711" />
    </g>
    <g
       id="g1795"
       transform="matrix(0.05546085,0,0,0.05546085,76.405459,76.146544)">
      <rect
         width="630"
         height="630"
         fill="#f7df1e"
         id="rect1783"
         x="0"
         y="0" />
      <path
         d="m 423.2,492.19 c 12.69,20.72 29.2,35.95 58.4,35.95 24.53,0 40.2,-12.26 40.2,-29.2 0,-20.3 -16.1,-27.49 -43.1,-39.3 l -14.8,-6.35 c -42.72,-18.2 -71.1,-41 -71.1,-89.2 0,-44.4 33.83,-78.2 86.7,-78.2 37.64,0 64.7,13.1 84.2,47.4 l -46.1,29.6 c -10.15,-18.2 -21.1,-25.37 -38.1,-25.37 -17.34,0 -28.33,11 -28.33,25.37 0,17.76 11,24.95 36.4,35.95 l 14.8,6.34 c 50.3,21.57 78.7,43.56 78.7,93 0,53.3 -41.87,82.5 -98.1,82.5 -54.98,0 -90.5,-26.2 -107.88,-60.54 z m -209.13,5.13 c 9.3,16.5 17.76,30.45 38.1,30.45 19.45,0 31.72,-7.61 31.72,-37.2 v -201.3 h 59.2 v 202.1 c 0,61.3 -35.94,89.2 -88.4,89.2 -47.4,0 -74.85,-24.53 -88.81,-54.075 z"
         id="path1785" />
    </g>
    <g
       id="logo"
       transform="matrix(0.32805878,0,0,0.32805878,136.34107,93.537174)">
      <path
         id="r"
         transform="translate(0.5,0.5)"
         stroke="#000000"
         stroke-width="1"
         stroke-linejoin="round"
         d="M -9,-15 H 4 c 8,0 8,8 0,8 H -9 Z M -40,22 H 0 V 11 H -9 V 3 H 1 C 12,3 6,22 15,22 H 40 V 3 h -6 v 2 c 0,8 -9,7 -10,2 -1,-5 -5,-9 -6,-9 15,-8 6,-24 -6,-24 h -47 v 11 h 10 v 26 h -15 z" />
      <g
         id="gear"
         mask="url(#holes)">
        <circle
           r="43"
           fill="none"
           stroke="#000000"
           stroke-width="9"
           id="circle1927"
           cx="0"
           cy="0" />
        <g
           id="cogs">
          <polygon
             id="cog"
             stroke="#000000"
             stroke-width="3"
             stroke-linejoin="round"
             points="46,-3 46,3 51,0 " />
          <use
             xlink:href="#cog"
             transform="rotate(11.25)"
             id="use1930"
             x="0"
             y="0"
             width="100%"
             height="100%" />
          <use
             xlink:href="#cog"
             transform="rotate(22.5)"
             id="use1932"
             x="0"
             y="0"
             width="100%"
             height="100%" />
          <use
             xlink:href="#cog"
             transform="rotate(33.75)"
             id="use1934"
             x="0"
             y="0"
             width="100%"
             height="100%" />
          <use
             xlink:href="#cog"
             transform="rotate(45)"
             id="use1936"
             x="0"
             y="0"
             width="100%"
             height="100%" />
          <use
             xlink:href="#cog"
             transform="rotate(56.25)"
             id="use1938"
             x="0"
             y="0"
             width="100%"
             height="100%" />
          <use
             xlink:href="#cog"
             transform="rotate(67.5)"
             id="use1940"
             x="0"
             y="0"
             width="100%"
             height="100%" />
          <use
             xlink:href="#cog"
             transform="rotate(78.75)"
             id="use1942"
             x="0"
             y="0"
             width="100%"
             height="100%" />
          <use
             xlink:href="#cog"
             transform="rotate(90)"
             id="use1944"
             x="0"
             y="0"
             width="100%"
             height="100%" />
          <use
             xlink:href="#cog"
             transform="rotate(101.25)"
             id="use1946"
             x="0"
             y="0"
             width="100%"
             height="100%" />
          <use
             xlink:href="#cog"
             transform="rotate(112.5)"
             id="use1948"
             x="0"
             y="0"
             width="100%"
             height="100%" />
          <use
             xlink:href="#cog"
             transform="rotate(123.75)"
             id="use1950"
             x="0"
             y="0"
             width="100%"
             height="100%" />
          <use
             xlink:href="#cog"
             transform="rotate(135)"
             id="use1952"
             x="0"
             y="0"
             width="100%"
             height="100%" />
          <use
             xlink:href="#cog"
             transform="rotate(146.25)"
             id="use1954"
             x="0"
             y="0"
             width="100%"
             height="100%" />
          <use
             xlink:href="#cog"
             transform="rotate(157.5)"
             id="use1956"
             x="0"
             y="0"
             width="100%"
             height="100%" />
          <use
             xlink:href="#cog"
             transform="rotate(168.75)"
             id="use1958"
             x="0"
             y="0"
             width="100%"
             height="100%" />
          <use
             xlink:href="#cog"
             transform="scale(-1)"
             id="use1960"
             x="0"
             y="0"
             width="100%"
             height="100%" />
          <use
             xlink:href="#cog"
             transform="rotate(-168.75)"
             id="use1962"
             x="0"
             y="0"
             width="100%"
             height="100%" />
          <use
             xlink:href="#cog"
             transform="rotate(-157.5)"
             id="use1964"
             x="0"
             y="0"
             width="100%"
             height="100%" />
          <use
             xlink:href="#cog"
             transform="rotate(-146.25)"
             id="use1966"
             x="0"
             y="0"
             width="100%"
             height="100%" />
          <use
             xlink:href="#cog"
             transform="rotate(-135)"
             id="use1968"
             x="0"
             y="0"
             width="100%"
             height="100%" />
          <use
             xlink:href="#cog"
             transform="rotate(-123.75)"
             id="use1970"
             x="0"
             y="0"
             width="100%"
             height="100%" />
          <use
             xlink:href="#cog"
             transform="rotate(-112.5)"
             id="use1972"
             x="0"
             y="0"
             width="100%"
             height="100%" />
          <use
             xlink:href="#cog"
             transform="rotate(-101.25)"
             id="use1974"
             x="0"
             y="0"
             width="100%"
             height="100%" />
          <use
             xlink:href="#cog"
             transform="rotate(-90)"
             id="use1976"
             x="0"
             y="0"
             width="100%"
             height="100%" />
          <use
             xlink:href="#cog"
             transform="rotate(-78.75)"
             id="use1978"
             x="0"
             y="0"
             width="100%"
             height="100%" />
          <use
             xlink:href="#cog"
             transform="rotate(-67.5)"
             id="use1980"
             x="0"
             y="0"
             width="100%"
             height="100%" />
          <use
             xlink:href="#cog"
             transform="rotate(-56.25)"
             id="use1982"
             x="0"
             y="0"
             width="100%"
             height="100%" />
          <use
             xlink:href="#cog"
             transform="rotate(-45)"
             id="use1984"
             x="0"
             y="0"
             width="100%"
             height="100%" />
          <use
             xlink:href="#cog"
             transform="rotate(-33.75)"
             id="use1986"
             x="0"
             y="0"
             width="100%"
             height="100%" />
          <use
             xlink:href="#cog"
             transform="rotate(-22.5)"
             id="use1988"
             x="0"
             y="0"
             width="100%"
             height="100%" />
          <use
             xlink:href="#cog"
             transform="rotate(-11.25)"
             id="use1990"
             x="0"
             y="0"
             width="100%"
             height="100%" />
        </g>
        <g
           id="mounts">
          <polygon
             id="mount"
             stroke="#000000"
             stroke-width="6"
             stroke-linejoin="round"
             points="7,-42 -7,-42 0,-35 " />
          <use
             xlink:href="#mount"
             transform="rotate(72)"
             id="use1994"
             x="0"
             y="0"
             width="100%"
             height="100%" />
          <use
             xlink:href="#mount"
             transform="rotate(144)"
             id="use1996"
             x="0"
             y="0"
             width="100%"
             height="100%" />
          <use
             xlink:href="#mount"
             transform="rotate(-144)"
             id="use1998"
             x="0"
             y="0"
             width="100%"
             height="100%" />
          <use
             xlink:href="#mount"
             transform="rotate(-72)"
             id="use2000"
             x="0"
             y="0"
             width="100%"
             height="100%" />
        </g>
      </g>
      <mask
         id="holes">
        <rect
           x="-60"
           y="-60"
           width="120"
           height="120"
           fill="#ffffff"
           id="rect2004" />
        <circle
           id="hole"
           cy="-40"
           r="3"
           cx="0" />
        <use
           xlink:href="#hole"
           transform="rotate(72)"
           id="use2007"
           x="0"
           y="0"
           width="100%"
           height="100%" />
        <use
           xlink:href="#hole"
           transform="rotate(144)"
           id="use2009"
           x="0"
           y="0"
           width="100%"
           height="100%" />
        <use
           xlink:href="#hole"
           transform="rotate(-144)"
           id="use2011"
           x="0"
           y="0"
           width="100%"
           height="100%" />
        <use
           xlink:href="#hole"
           transform="rotate(-72)"
           id="use2013"
           x="0"
           y="0"
           width="100%"
           height="100%" />
      </mask>
    </g>
  </g>
</svg>
